<svg id="Layer_1" data-name="Layer 1" xmlns="http://www.w3.org/2000/svg" viewBox="0 0 500 500"><defs><style>.cls-1{fill:#f3bd19;}</style></defs><title>Untitled-1</title><path class="cls-1" d="M52.54,245.67q0-84.88,0-169.78c0-17.12,9.82-26.95,27-26.95H419.85c17.13,0,27,9.83,27,27V416.21c0,17.13-9.84,27-27,27H79.51c-17.14,0-27-9.84-27-27Q52.53,330.95,52.54,245.67Zm65-117V342.81h48.61V265.64c18.66,1.34,36.8,1.08,54.5-4.19,17-5.08,31.85-13.58,41.67-29,9-14.13,12.06-29.81,10.56-46.34-2.24-24.63-14.43-42.51-37.1-52.84C221.87,127,207,124.72,192,124.61c-17.3-.13-34.63.68-51.92,1.48C132.53,126.44,125.07,127.78,117.51,128.67Zm166.72,173a7.3,7.3,0,0,0-.59,1.55q-3.18,12.84-6.29,25.7c-1.68,6.93-1.66,6.94,5.08,9.64,16.11,6.48,32.94,8.26,50.12,7.66,12-.41,23.63-2.64,34.59-7.76,24.6-11.49,34.65-38.82,23.17-63.35-4.36-9.32-11.76-15.92-20.73-20.38s-18.37-7.72-27.46-11.8a53.84,53.84,0,0,1-11.92-6.77,9.74,9.74,0,0,1,.11-15.41,25.12,25.12,0,0,1,11.87-4.49c11.46-1.13,22.31,2,32.77,6.52,1.46.63,2.93,1.22,4.6,1.92,2.92-11.43,5.74-22.42,8.57-33.48-.69-.36-1.12-.62-1.58-.81a105.43,105.43,0,0,0-62.11-6.3c-15,3-28,10.09-36.8,23.11-11.35,16.72-11.87,40.9,5.69,56.58,7.77,6.93,16.76,11.65,26.37,15.4,7,2.74,14.06,5.46,20.85,8.69,5.22,2.48,7.72,7,6.88,13-.81,5.69-4.66,8.52-9.84,10a42.38,42.38,0,0,1-22.43.11C304.82,308.24,294.68,304.8,284.23,301.62Z"/><path class="cls-1" d="M165.9,227.46V217c0-16.43.07-32.85-.06-49.28,0-3.21.58-4.68,4.21-5.12,10.26-1.25,20.43-1.8,30.59.51,15.19,3.46,24,14.89,23.86,31-.14,16.76-10.5,29.24-26.86,32.83C187.2,229.14,176.81,228.85,165.9,227.46Z"/></svg>