<svg id="Layer_1" data-name="Layer 1" xmlns="http://www.w3.org/2000/svg" viewBox="0 0 500 500"><defs><style>.cls-1{fill:#f3bd19;}</style></defs><title>Untitled-1</title><path class="cls-1" d="M246,254.9H40.22A116.06,116.06,0,0,0,43,291.2c6.41,27.72,20.06,50.57,45.57,64.85,23.06,12.92,47.53,13.35,72.65,7.4,29.7-7,48.48-25.57,58-54.08.78-2.36,1.53-4.73,2.45-7,4-9.9,12-12.79,21.73-7.9-7.35,51.6-45.74,86.91-98,90.34-31.41,2.06-60.19-4.9-85-24.92-21-17-32-40-37.15-65.92-3.07-15.43-7.1-31-5-46.83,3.94-30.17,8.41-60.37,28.19-85.35,24.69-31.17,56.9-47.65,96.83-44.91,49,3.36,86.81,36.79,98.56,84.52C246.1,218.76,246.79,236.44,246,254.9Zm-20-18.09a113.58,113.58,0,0,0-5.16-34.74c-14.49-49.09-57.73-75.19-106.63-63.85-34,7.87-55.6,29.71-67.22,62a113.14,113.14,0,0,0-6.61,36.63Z"/><path class="cls-1" d="M263.38,124.7c14.54-4.77,27.09-.86,35.86,10.94q33.31,44.85,66.6,89.73c1,1.3,2,2.53,3.35,4.21,4.87-6.45,9.45-12.52,14-18.59q28.49-37.91,57-75.79c8.73-11.56,18.94-14.72,33-10.19-1.22,1.7-2.29,3.3-3.46,4.82Q429.6,182.38,389.45,234.9c-6.31,8.26-6.36,11.93,0,20.42q44.17,58.55,88.37,117.08c1.28,1.7,2.48,3.47,3.75,5.25-12.25,5.21-25.27,2-33.43-9-14.88-20-29.35-40.34-44-60.5q-16-22-32.08-43.9c-.86-1.19-1.82-2.3-3.16-4-3.59,4.76-7,9.18-10.29,13.65q-33.39,45.1-66.76,90.23c-1.19,1.61-2.41,3.18-3.65,4.75-8.22,10.32-18.76,13-31.94,9.33,4-5.43,7.75-10.62,11.58-15.76q42.22-56.6,84.53-113.1c2.48-3.29,2.8-5.37.1-8.84q-43.42-56-86.5-112.23C265.19,127.29,264.46,126.2,263.38,124.7Z"/></svg>