<svg id="Layer_1" data-name="Layer 1" xmlns="http://www.w3.org/2000/svg" viewBox="0 0 500 500"><defs><style>.cls-1{fill:#f3bd19;}</style></defs><title>Untitled-1</title><path class="cls-1" d="M448.84,246.45q0,85.64,0,171.26c0,17.28-9.89,27.17-27.19,27.17H78.34c-17.29,0-27.17-9.89-27.17-27.18q0-171.64,0-343.3c0-17.3,9.87-27.17,27.18-27.17h343.3c17.27,0,27.18,9.91,27.18,27.19Q448.85,160.43,448.84,246.45Zm-142.19,105c-.35-1.52-.55-2.63-.88-3.71Q285.88,283.67,266,219.57C259,197.27,252.1,175,245.3,152.66c-.86-2.8-2.09-3.94-5.12-3.73-4.25.3-8.54.08-12.81.08h-43.3l-61.84,202.3c1.82.08,3,.18,4.11.18,13.2,0,26.41-.09,39.61.08,2.9,0,4-1,4.76-3.64,4.06-15.07,8.34-30.07,12.39-45.15.65-2.42,1.59-3.28,4.15-3.26q25.83.17,51.65,0c2.67,0,3.46,1.06,4.13,3.33,4.32,14.72,8.89,29.37,13.13,44.12,1,3.38,2.23,4.74,6,4.66,13.33-.29,26.66-.12,40-.12Zm24.24,0c14,0,27.58-.14,41.13.1,3.77.07,4.43-1.26,4.43-4.65q-.15-68.87-.07-137.74V205H330.89Zm22.29-165c14.19,0,24.36-9.28,24.54-22.42.17-13.36-10-23.24-24.09-23.38s-24.33,9.61-24.24,23.12C329.48,177.08,339.34,186.48,353.18,186.49Z"/><path class="cls-1" d="M235.06,265.22H191q10.72-41,21.26-81.12Q223.52,224.14,235.06,265.22Z"/></svg>