<?xml version="1.0" encoding="utf-8"?>
<!-- Generator: Adobe Illustrator 24.0.2, SVG Export Plug-In . SVG Version: 6.00 Build 0)  -->
<svg version="1.1" id="Layer_1" xmlns="http://www.w3.org/2000/svg" xmlns:xlink="http://www.w3.org/1999/xlink" x="0px" y="0px"
	 viewBox="0 0 500 500" style="enable-background:new 0 0 500 500;" xml:space="preserve">
<style type="text/css">
	.st0{fill:#F4BD0B;}
</style>
<title>nextjs-logo</title>
<g>
	<path class="st0" d="M123.8,250.4v-62.2c0-4.2,1.1-5.7,5.5-5.7c26.4,0.2,52.8,0,79.3,0c2.9,0,5.7-0.2,5.6,4s-3.1,3.3-5.6,3.3
		c-23.6,0-47.3,0.1-71,0c-4.3,0-5.6,1.3-5.5,5.6c0.2,14.3,0.3,28.7,0,43c0,4.5,1.5,5.5,5.7,5.5c22.1-0.2,44.2-0.2,66.3,0
		c1.7,0,4.6,1.3,5,2.6c1.3,4-1.4,4.8-4.9,4.8c-20.9-0.1-41.8-0.1-62.7,0c-10.4,0-9.1-1.1-9.1,9c0,14.9,0.1,29.7,0,44.6
		c0,4.2,1.2,5.7,5.5,5.6c24.2-0.2,48.4,0,72.5,0c2.3,0,5-0.6,5.2,3.3c0.2,3.5-1.2,4.5-4.5,4.5c-11.4-0.1-22.8,0-34.2,0
		c-15.7,0-31.4-0.1-47.1,0c-4.4,0-5.6-1.5-5.5-5.7C123.9,291.9,123.8,271.2,123.8,250.4z"/>
	<path class="st0" d="M219.1,317.5c5.8-8.2,11.2-15.9,16.7-23.5c10-13.8,20-27.7,30.3-41.3c2.3-3.1,2.4-5.3,0-8.5
		c-13.2-18.1-26.2-36.4-39.2-54.6c-1.4-1.8-2.6-3.9-4.2-6.3c5.5-1.3,9.1-0.9,12.2,3.7c12.1,17.4,24.6,34.5,37,51.8
		c0.6,0.8,1.3,1.5,2.1,2.5L364.4,122l1.5,1.1c-7.3,10.7-14.6,21.5-22.1,32.2c-20.5,29.8-41,59.6-61.6,89.3c-2.3,3.3-1.4,5.5,0.6,8.2
		c14.9,20.5,29.7,41.1,44.4,61.7c0.6,0.8,1,1.7,1.7,2.9c-5.2,1.7-9,1.2-12.3-3.5c-13.1-18.6-26.6-37-39.9-55.4
		c-0.7-0.9-1.5-1.8-2.7-3.3c-6,8.3-11.8,16.2-17.5,24.1c-8.5,11.9-17.1,23.8-25.6,35.7C228,319.1,224.1,318.6,219.1,317.5z"/>
	<path class="st0" d="M151.6,378C104,320,63.8,256.7,21,195.4l-1.6,0.3v12.6c0,34.5-0.1,69.1-0.3,103.7c0,2.1-0.8,5.2-2.2,6
		c-3.7,1.9-6,0-6-4.5v-126c0-1.6,1.1-4.4,1.8-4.5c3.7-0.3,7.6-1.7,10.3,2.5c7,10.7,14.2,21.2,21.3,31.8
		c28.1,42.2,56.2,84.4,84.3,126.7C136.2,355.3,143.9,366.7,151.6,378z"/>
	<path class="st0" d="M333.9,190c-1.6-5.3-0.7-7.5,4.6-7.5c30.8,0.2,61.5,0,92.2,0.2c1.8,0,4.8,1.1,5.3,2.4c1.2,3.1-0.3,5-4.2,5
		c-12.4-0.1-24.9,0.2-37.3-0.2c-4.6-0.1-5.8,1.3-5.8,5.9c0.2,38.9,0.2,77.7,0,116.6c0,2.3,1.1,5.5-3.1,5.9c-4.6,0.5-5.5-1.7-5.5-5.7
		c0.1-38,0.1-76,0-114c0-9.5,0.8-8.4-8.2-8.4C359.5,190,346.8,190,333.9,190z"/>
	<path class="st0" d="M488.7,287.3c-2.2-1-3.5-1.5-4.6-2.1c-1.7-0.8-3.4-2.6-4.9-2.3c-2.2,0.3-4.2,2-6.3,3.1
		c1.3,1.7,2.9,3.3,4.7,4.6c2,1.2,4.9,1,6.7,2.3c2.1,1.6,4.8,4.2,4.9,6.4c-0.2,3-1.6,5.8-3.9,7.7c-6.3,4.9-14.9,2.1-18.3-7
		c1.8,0.9,3.7,1.7,5.6,2.3c2.8,0.9,5.7,1.5,8.7,1.7c1.1,0,3-2.1,3.1-3.3c-0.3-1.6-1.2-2.9-2.6-3.7c-2.2-1-4.5-1.7-6.9-2.2
		c-4.2-1-6.8-3.3-6.8-7.9s2.9-6.8,6.7-8.2C480.7,276.4,486.7,279.7,488.7,287.3z"/>
	<path class="st0" d="M443.2,300.1c2.5,1.2,4,2,5.5,2.6c1.5,0.6,3.7,1.7,5.1,1.1c1.5-1,2.5-2.6,2.6-4.3c0.3-5.3,0-10.7,0.3-16
		c0-1.4,1.3-2.7,2-4.1c0.9,1.4,2.4,2.8,2.4,4.2c0.3,5.7,0.3,11.4,0,17.1c-0.3,5.3-3.3,8.1-8,8.4
		C448.3,309.3,445.2,307.2,443.2,300.1z"/>
</g>
</svg>
