<svg id="Layer_1" data-name="Layer 1" xmlns="http://www.w3.org/2000/svg" viewBox="0 0 500 500"><defs><style>.cls-1{fill:#f3bd19;}</style></defs><title>Untitled-1</title><path class="cls-1" d="M392.49,331.62c1.59,8.68,3.38,17.09,4.63,25.57,3.47,23.51,4.25,47-2.56,70.12-9.32,31.61-31.51,44.25-63.42,36.12-23.23-5.91-42.66-18.87-61-33.65-6.33-5.11-12.32-10.64-18.53-16-7.58,6.33-15.09,13-23.05,19.15-18.83,14.47-38.87,26.71-62.65,31.3-30.43,5.86-51.06-7-59.51-37-4.89-17.38-5.31-35.13-3.48-52.87,1.43-13.83,4.08-27.54,6.24-41.61-8.23-3-17.17-5.92-25.88-9.42-21.11-8.49-40.88-19.24-56.95-35.76-9.72-10-17.07-21.35-17.7-35.79s6.11-26.25,15.69-36.49c15.57-16.62,35.12-27.12,55.92-35.47,9.67-3.89,19.62-7.06,29.51-10.57-1.94-11.18-4.35-22.48-5.78-33.9-2.81-22.56-3.37-45.1,4.35-67,5.91-16.74,16.35-29,34.74-32,12.91-2.11,25.44.53,37.58,5.08,24.35,9.14,44.79,24.37,64.05,41.4,2,1.75,3.9,3.53,5.55,5,11.11-8.9,21.69-18,32.89-26.24,15.88-11.68,33-20.95,52.63-25,26.87-5.6,46.27,4.9,56.05,30.58,7.14,18.76,8.05,38.32,6.29,57.94-1.23,13.67-4,27.21-6.3,40.78-.54,3.17.35,4.26,3.37,5.18,20.56,6.18,40.65,13.73,58.44,25.89,9.51,6.5,18.76,14,26.32,22.61,17.32,19.79,16.71,42-.29,62.22-13.47,16-30.78,26.76-49.52,35.26-11,5-22.52,8.81-33.81,13.15C395.1,330.67,393.88,331.11,392.49,331.62Zm-142.73-4.26v1.33c13.44-.5,26.89-.85,40.31-1.64,2.29-.13,5.48-1.51,6.54-3.32q20.63-35.19,40.61-70.75a6.37,6.37,0,0,0,.07-5.35q-20.15-35.19-40.73-70.12a8.23,8.23,0,0,0-5.5-3.23,150.58,150.58,0,0,0-18.38-1.07q-31.12.21-62.24,1a8.2,8.2,0,0,0-5.88,3.42q-20.41,34.72-40.24,69.79a7.56,7.56,0,0,0,0,6.36c13.28,23.34,26.84,46.53,40.23,69.81,1.62,2.82,3.77,3.84,6.88,3.83C224.19,327.32,237,327.36,249.76,327.36ZM115,189.89c-4.69,1.49-9.8,3-14.79,4.74-20.91,7.46-41,16.46-57.5,31.86-17,15.88-17.47,30.52-.72,46.82a130.47,130.47,0,0,0,19.44,15.45c16.62,10.85,34.93,18,53.28,23.3,8.07-20.12,16-39.78,23.78-59.48a6.2,6.2,0,0,0-.06-4.14C130.69,229,122.89,209.68,115,189.89ZM236,399c-13.26-16.84-25.93-33-38.78-49.1A8.84,8.84,0,0,0,192,347c-12.64-1.75-25.35-3.05-38-4.82-7.81-1.09-15.54-2.76-23.38-4.18a30.42,30.42,0,0,0-1.16,3.23c-3.68,16.53-6.52,33.17-6.47,50.2,0,12.85,1.14,25.53,6.33,37.48,5.31,12.21,13.87,16.94,26.91,15.63,13.52-1.37,25.56-6.73,37.18-13.23A204.31,204.31,0,0,0,236,399Zm30.2-.32c6.87,5.92,13.19,11.83,20,17.14,15.64,12.25,32.19,23,51.83,27.78,15,3.68,24.88.93,30.86-10a76.79,76.79,0,0,0,7.8-21.82c4.73-24.1,1.13-47.92-3.91-71.6-.63-2.95-2.18-3-4.69-2.58-19.33,3-38.69,5.86-58,9a9.67,9.67,0,0,0-5.52,3.39c-5.73,7.32-11,15-16.73,22.34C280.92,381,273.73,389.43,266.16,398.64ZM235.65,103c-2.93-2.65-5.94-5.48-9.07-8.18-16.55-14.3-34.2-26.88-55-34.3A67.5,67.5,0,0,0,157.64,57c-16.56-2.09-25.56,3.91-30.42,20.89-8.28,28.95-3.12,57.47,3.2,86,1.47-.1,2.46-.09,3.43-.24,17.18-2.75,34.29-6.1,51.56-8,7.67-.84,12.45-3.83,16-10.16a46.54,46.54,0,0,1,4.78-6.38C215.92,127.14,225.69,115.2,235.65,103ZM370.8,163.49a19.29,19.29,0,0,0,.94-3.17c2-13.27,4.6-26.48,5.76-39.82,1.29-14.93.39-29.88-4.65-44.24-6.23-17.78-16.43-23.47-34.69-18.75-29,7.5-51.05,26-72,45.14,13.25,17,26.14,33.68,39.15,50.23a6.3,6.3,0,0,0,3.84,1.78C329.52,157.63,349.85,160.51,370.8,163.49Zm15.37,26.2c-5.84,15.24-11.08,29.18-16.52,43-2.3,5.86-7,11.57-6.95,17.35s4.67,11.47,7,17.31c5.79,14.42,11.43,28.9,17.46,44.18,10.42-4,21.24-7.68,31.61-12.33,16.75-7.52,32.71-16.47,44.69-30.89,11.08-13.36,10.82-23.67-.54-36.81a65.45,65.45,0,0,0-4.85-5c-11.79-11.07-25.72-18.79-40.49-25C407.27,197.22,396.63,193.61,386.17,189.69Zm-64.52,134.9,45-7.7-16.18-42.28C340.56,291.74,331.34,307.75,321.65,324.59ZM151.08,275.4c-5.2,14.14-10.2,27.73-15.6,42.39L179.77,325ZM251.4,383.78l28.19-34.84h-57.3C232.28,360.91,241.57,372,251.4,383.78ZM365.62,184.46l-43.82-7.64,28.39,49C355.45,211.73,360.34,198.61,365.62,184.46Zm-86.48-32.35-28.36-34.24-28.54,34.24ZM151.19,226c4.93-8.85,9.29-16.85,13.84-24.74s9.16-15.52,14.52-24.56l-43.73,7.6C141.12,198.71,146,212,151.19,226Z"/><path class="cls-1" d="M250.34,293.39a43.36,43.36,0,0,1,.16-86.71c24.34,0,43.46,19.26,43.39,43.74C293.83,274.5,274.66,293.42,250.34,293.39Z"/></svg>